<svg xmlns="http://www.w3.org/2000/svg" xmlns:xlink="http://www.w3.org/1999/xlink" width="350" height="350"
     viewBox="0 0 350 350">
    <defs>
        <filter id="Ellipse_2" x="80.5" y="23.5" width="188" height="190" filterUnits="userSpaceOnUse">
            <feOffset dx="2" dy="4" input="SourceAlpha"/>
            <feGaussianBlur stdDeviation="5.5" result="blur"/>
            <feFlood flood-opacity="0.161"/>
            <feComposite operator="in" in2="blur"/>
            <feComposite in="SourceGraphic"/>
        </filter>
        <linearGradient id="linear-gradient" x1="0.5" y1="1" x2="0.5" gradientUnits="objectBoundingBox">
            <stop offset="0" stop-color="#fcc310"/>
            <stop offset="1" stop-color="#ea5e37"/>
        </linearGradient>
        <filter id="Path_6" x="117.918" y="64.035" width="107.682" height="107.682" filterUnits="userSpaceOnUse">
            <feOffset dy="3" input="SourceAlpha"/>
            <feGaussianBlur stdDeviation="3" result="blur-2"/>
            <feFlood flood-opacity="0.161"/>
            <feComposite operator="in" in2="blur-2"/>
            <feComposite in="SourceGraphic"/>
        </filter>
        <filter id="Path_23" x="185.5" y="149.5" width="90" height="90" filterUnits="userSpaceOnUse">
            <feOffset dx="2" dy="4" input="SourceAlpha"/>
            <feGaussianBlur stdDeviation="5.5" result="blur-3"/>
            <feFlood flood-opacity="0.161"/>
            <feComposite operator="in" in2="blur-3"/>
            <feComposite in="SourceGraphic"/>
        </filter>
        <linearGradient id="linear-gradient-2" x1="0.5" y1="-0.035" x2="0.5" y2="1.097"
                        gradientUnits="objectBoundingBox">
            <stop offset="0" stop-color="#fff33b"/>
            <stop offset="0.014" stop-color="#fee72e"/>
            <stop offset="0.042" stop-color="#fed51b"/>
            <stop offset="0.07" stop-color="#fdca10"/>
            <stop offset="0.1" stop-color="#fdc70c"/>
            <stop offset="0.4" stop-color="#f3903f"/>
            <stop offset="0.8" stop-color="#ed683c"/>
            <stop offset="1" stop-color="#e93e3a"/>
        </linearGradient>
        <filter id="Path_1" x="209.446" y="171.005" width="38.173" height="45.206" filterUnits="userSpaceOnUse">
            <feOffset dy="1" input="SourceAlpha"/>
            <feGaussianBlur stdDeviation="0.5" result="blur-4"/>
            <feFlood flood-opacity="0.161"/>
            <feComposite operator="in" in2="blur-4"/>
            <feComposite in="SourceGraphic"/>
        </filter>
        <linearGradient id="linear-gradient-3" y1="-0.125" y2="1.229" xlink:href="#linear-gradient-2"/>
        <filter id="Path_2" x="212.26" y="173.933" width="32.545" height="38.297" filterUnits="userSpaceOnUse">
            <feOffset dy="1" input="SourceAlpha"/>
            <feGaussianBlur stdDeviation="0.5" result="blur-5"/>
            <feFlood flood-opacity="0.161"/>
            <feComposite operator="in" in2="blur-5"/>
            <feComposite in="SourceGraphic"/>
        </filter>
        <linearGradient id="linear-gradient-4" y1="-0.581" y2="2.031" xlink:href="#linear-gradient-2"/>
        <filter id="Path_4" x="217.888" y="180.148" width="21.29" height="21.29" filterUnits="userSpaceOnUse">
            <feOffset dy="1" input="SourceAlpha"/>
            <feGaussianBlur stdDeviation="0.5" result="blur-6"/>
            <feFlood flood-opacity="0.161"/>
            <feComposite operator="in" in2="blur-6"/>
            <feComposite in="SourceGraphic"/>
        </filter>
        <filter id="G" x="223.5" y="182.5" width="11" height="16" filterUnits="userSpaceOnUse">
            <feOffset dy="1" input="SourceAlpha"/>
            <feGaussianBlur stdDeviation="0.5" result="blur-7"/>
            <feFlood flood-opacity="0.161"/>
            <feComposite operator="in" in2="blur-7"/>
            <feComposite in="SourceGraphic"/>
        </filter>
        <clipPath id="clip-guardio-life-logo-mini-with-text">
            <rect width="350" height="350"/>
        </clipPath>
    </defs>
    <g id="guardio-life-logo-mini-with-text" clip-path="url(#clip-guardio-life-logo-mini-with-text)">
        <rect id="Rectangle_1" data-name="Rectangle 1" width="319" height="319" rx="10" transform="translate(16 16)"
              fill="#fff"/>
        <g transform="matrix(1, 0, 0, 1, 0, 0)" filter="url(#Ellipse_2)">
            <ellipse id="Ellipse_2-2" data-name="Ellipse 2" cx="77.5" cy="78.5" rx="77.5" ry="78.5"
                     transform="translate(95 36)" fill="#fff"/>
        </g>
        <text id="Life" transform="translate(134 312)" fill="#262565" font-size="40"
              font-family="Roboto-Regular, Roboto">
            <tspan x="0" y="0">LIFE</tspan>
        </text>
        <g id="Hospital_2_" transform="translate(107.594 50.712)">
            <g id="Group_5" data-name="Group 5" transform="translate(19.324 19.324)">
                <g id="Group_4" data-name="Group 4">
                    <g transform="matrix(1, 0, 0, 1, -126.92, -70.04)" filter="url(#Path_6)">
                        <path id="Path_6-2" data-name="Path 6"
                              d="M161.945,105.894H135.788V79.737A3.735,3.735,0,0,0,132.051,76h-22.42a3.735,3.735,0,0,0-3.737,3.737v26.157H79.737A3.735,3.735,0,0,0,76,109.631v22.42a3.735,3.735,0,0,0,3.737,3.737h26.157v26.157a3.735,3.735,0,0,0,3.737,3.737h22.42a3.735,3.735,0,0,0,3.737-3.737V135.788h26.157a3.735,3.735,0,0,0,3.737-3.737v-22.42A3.735,3.735,0,0,0,161.945,105.894Z"
                              transform="translate(50.92 -5.96)" fill="url(#linear-gradient)"/>
                    </g>
                </g>
            </g>
        </g>
        <g transform="matrix(1, 0, 0, 1, 0, 0)" filter="url(#Path_23)">
            <path id="Path_23-2" data-name="Path 23"
                  d="M10,0H47A10,10,0,0,1,57,10V47A10,10,0,0,1,47,57H10A10,10,0,0,1,0,47V10A10,10,0,0,1,10,0Z"
                  transform="translate(200 162)" fill="#fff"/>
        </g>
        <g id="protect-protection-sheild-safeguard-virus" transform="translate(196.777 155.903)">
            <g id="Group_1" transform="translate(14.169 15.602)">
                <g transform="matrix(1, 0, 0, 1, -210.95, -171.51)" filter="url(#Path_1)">
                    <path id="Path_1-2" data-name="Path_1"
                          d="M41.666,6.953,24.783,2.029a.748.748,0,0,0-.394,0L7.506,6.953A.7.7,0,0,0,7,7.628V20.29a15.949,15.949,0,0,0,4.706,11.3V31.6L24.087,44a.713.713,0,0,0,1,0L37.467,31.6a15.949,15.949,0,0,0,4.706-11.3V7.628a.7.7,0,0,0-.507-.675Zm-.9,13.338a14.543,14.543,0,0,1-4.3,10.313l-11.881,11.9L12.705,30.6a14.543,14.543,0,0,1-4.3-10.313V8.156l16.18-4.721L40.766,8.156Z"
                          transform="translate(203.95 169.5)" fill="url(#linear-gradient-2)"/>
                </g>
                <g transform="matrix(1, 0, 0, 1, -210.95, -171.51)" filter="url(#Path_2)">
                    <path id="Path_2-2" data-name="Path_2"
                          d="M40.038,10.3,25.969,6.2a.629.629,0,0,0-.394,0L11.506,10.3a.7.7,0,0,0-.506.675V21.525a13.16,13.16,0,0,0,3.883,9.322l10.39,10.4a.7.7,0,0,0,1,0l10.383-10.4a13.138,13.138,0,0,0,3.89-9.321V10.973a.7.7,0,0,0-.507-.675Zm-.9,11.227a11.772,11.772,0,0,1-3.475,8.33l-9.891,9.9-9.891-9.9a11.756,11.756,0,0,1-3.475-8.33V11.5L25.771,7.6l13.367,3.9Z"
                          transform="translate(202.76 168.27)" fill="url(#linear-gradient-3)"/>
                </g>
                <g transform="matrix(1, 0, 0, 1, -210.95, -171.51)" filter="url(#Path_4)">
                    <path id="Path_4-2" data-name="Path_4"
                          d="M28.145,15a9.145,9.145,0,1,0,9.145,9.145A9.145,9.145,0,0,0,28.145,15Zm0,16.883a7.738,7.738,0,1,1,7.738-7.738A7.738,7.738,0,0,1,28.145,31.883Z"
                          transform="translate(200.39 165.65)" fill="url(#linear-gradient-4)"/>
                </g>
                <g transform="matrix(1, 0, 0, 1, -210.95, -171.51)" filter="url(#G)">
                    <text id="G-2" data-name="G" transform="translate(225 193)" fill="#f0803d" font-size="11"
                          font-family="Roboto-Regular, Roboto">
                        <tspan x="0" y="0">G</tspan>
                    </text>
                </g>
            </g>
        </g>
        <text id="GUARDIO" transform="translate(91 265)" fill="#262565" font-size="40"
              font-family="Roboto-Medium, Roboto" font-weight="500">
            <tspan x="0" y="0">GUARDIO</tspan>
        </text>
    </g>
</svg>
