<svg width="350" height="350" viewBox="0 0 350 350" fill="none" xmlns="http://www.w3.org/2000/svg">
<path d="M325 16H26C20.4772 16 16 20.4772 16 26V325C16 330.523 20.4772 335 26 335H325C330.523 335 335 330.523 335 325V26C335 20.4772 330.523 16 325 16Z" fill="white"/>
<g filter="url(#filter0_d_308_458)">
<path d="M172.5 193C215.302 193 250 157.854 250 114.5C250 71.1456 215.302 36 172.5 36C129.698 36 95 71.1456 95 114.5C95 157.854 129.698 193 172.5 193Z" fill="white"/>
</g>
<path d="M100.789 297.848H93.1914V294.781H100.789C102.26 294.781 103.452 294.547 104.363 294.078C105.275 293.609 105.939 292.958 106.355 292.125C106.785 291.292 107 290.341 107 289.273C107 288.297 106.785 287.379 106.355 286.52C105.939 285.66 105.275 284.97 104.363 284.449C103.452 283.915 102.26 283.648 100.789 283.648H94.0703V309H90.3008V280.562H100.789C102.938 280.562 104.754 280.934 106.238 281.676C107.723 282.418 108.849 283.447 109.617 284.762C110.385 286.064 110.77 287.555 110.77 289.234C110.77 291.057 110.385 292.613 109.617 293.902C108.849 295.191 107.723 296.174 106.238 296.852C104.754 297.516 102.938 297.848 100.789 297.848ZM123.367 283.082L113.953 309H110.105L120.945 280.562H123.426L123.367 283.082ZM131.258 309L121.824 283.082L121.766 280.562H124.246L135.125 309H131.258ZM130.77 298.473V301.559H114.793V298.473H130.77ZM138.934 280.562H148.348C150.483 280.562 152.286 280.888 153.758 281.539C155.242 282.19 156.368 283.154 157.137 284.43C157.918 285.693 158.309 287.249 158.309 289.098C158.309 290.4 158.042 291.591 157.508 292.672C156.987 293.74 156.232 294.651 155.242 295.406C154.266 296.148 153.094 296.702 151.727 297.066L150.672 297.477H141.824L141.785 294.41H148.465C149.819 294.41 150.945 294.176 151.844 293.707C152.742 293.225 153.419 292.581 153.875 291.773C154.331 290.966 154.559 290.074 154.559 289.098C154.559 288.004 154.344 287.047 153.914 286.227C153.484 285.406 152.807 284.775 151.883 284.332C150.971 283.876 149.793 283.648 148.348 283.648H142.703V309H138.934V280.562ZM155.555 309L148.641 296.109L152.566 296.09L159.578 308.766V309H155.555ZM172.527 280.562V309H168.816V280.562H172.527ZM181.668 280.562V283.648H159.695V280.562H181.668ZM207.762 280.562V309H203.973L189.656 287.066V309H185.887V280.562H189.656L204.031 302.555V280.562H207.762ZM232.508 305.934V309H217.449V305.934H232.508ZM218.211 280.562V309H214.441V280.562H218.211ZM230.516 292.789V295.855H217.449V292.789H230.516ZM232.312 280.562V283.648H217.449V280.562H232.312ZM237.176 280.562H246.59C248.725 280.562 250.529 280.888 252 281.539C253.484 282.19 254.611 283.154 255.379 284.43C256.16 285.693 256.551 287.249 256.551 289.098C256.551 290.4 256.284 291.591 255.75 292.672C255.229 293.74 254.474 294.651 253.484 295.406C252.508 296.148 251.336 296.702 249.969 297.066L248.914 297.477H240.066L240.027 294.41H246.707C248.061 294.41 249.188 294.176 250.086 293.707C250.984 293.225 251.661 292.581 252.117 291.773C252.573 290.966 252.801 290.074 252.801 289.098C252.801 288.004 252.586 287.047 252.156 286.227C251.727 285.406 251.049 284.775 250.125 284.332C249.214 283.876 248.035 283.648 246.59 283.648H240.945V309H237.176V280.562ZM253.797 309L246.883 296.109L250.809 296.09L257.82 308.766V309H253.797Z" fill="#262565"/>
<g filter="url(#filter1_d_308_458)">
<path d="M182.189 70.3855V77.0923H179.394H165.422H162.627V70.3855H182.189Z" fill="#A8CBEB"/>
<path d="M183.307 95.5361V102.327C183.176 102.958 182.837 103.527 182.344 103.943C181.851 104.358 181.233 104.596 180.589 104.619C179.945 104.642 179.312 104.447 178.791 104.067C178.27 103.687 177.892 103.143 177.718 102.522V104.101C177.653 104.566 177.457 105.002 177.152 105.359C176.881 105.635 176.553 105.85 176.191 105.987C175.829 106.125 175.442 106.182 175.056 106.155C174.333 106.136 173.642 105.853 173.114 105.359C172.687 104.992 172.413 104.478 172.345 103.92C172.331 103.687 172.331 103.454 172.345 103.221C172.358 102.988 172.358 102.755 172.345 102.522C172.345 102.522 172.171 103.221 172.143 103.319C171.921 103.808 171.567 104.226 171.12 104.524C170.673 104.821 170.151 104.987 169.614 105.003C168.845 104.944 168.127 104.6 167.598 104.039C167.07 103.479 166.77 102.741 166.756 101.971C166.452 102.289 166.085 102.541 165.679 102.712C165.272 102.883 164.835 102.968 164.395 102.963C162.9 102.837 161.516 101.286 161.447 99.176V87.9979C161.431 86.5744 161.764 85.1687 162.418 83.9039C163.122 82.6305 164.074 81.5115 165.219 80.6134C165.354 80.3001 165.423 79.9624 165.422 79.6213V77.0923H179.394V79.0485C179.394 79.0485 183.481 82.6324 183.928 83.1145C186.367 85.7274 187.631 86.0348 187.778 91.498V99.2389C187.687 99.3745 187.568 99.4889 187.429 99.5742C186.569 100.091 185.235 99.169 185.046 99.0432C183.53 97.9953 183.342 96.0042 183.307 95.5361Z" fill="white"/>
<path d="M165.422 77.0923V79.6213C165.423 79.9624 165.354 80.3001 165.219 80.6134C164.1 81.5095 163.169 82.6184 162.481 83.876C161.827 85.1408 161.494 86.5465 161.51 87.97V99.148C161.579 101.244 162.97 102.809 164.458 102.935C164.898 102.94 165.335 102.855 165.742 102.684C166.148 102.513 166.515 102.261 166.819 101.943C166.833 102.713 167.133 103.451 167.661 104.011C168.19 104.572 168.908 104.916 169.677 104.975C170.211 104.962 170.73 104.8 171.177 104.508C171.624 104.215 171.98 103.803 172.206 103.319C172.206 103.214 172.401 102.522 172.408 102.522C172.421 102.755 172.421 102.988 172.408 103.221C172.394 103.454 172.394 103.687 172.408 103.92C172.476 104.478 172.75 104.992 173.177 105.359C173.707 105.855 174.4 106.138 175.126 106.155C175.512 106.182 175.899 106.125 176.261 105.987C176.623 105.85 176.951 105.635 177.222 105.359C177.527 105.002 177.723 104.566 177.788 104.101V102.522C177.962 103.143 178.34 103.687 178.861 104.067C179.382 104.447 180.015 104.642 180.659 104.619C181.303 104.596 181.921 104.358 182.414 103.943C182.907 103.527 183.246 102.958 183.377 102.327V91.0649" stroke="#515F76" stroke-width="2.4" stroke-linecap="round" stroke-linejoin="round"/>
<path d="M183.307 95.5361C183.307 95.9972 183.53 97.9953 185.046 99.0292C185.235 99.155 186.569 100.077 187.429 99.5602C187.568 99.4749 187.687 99.3605 187.778 99.2249V91.477C187.631 86.0417 186.381 85.7343 183.929 83.0935C183.482 82.6114 179.395 79.0275 179.395 79.0275V77.0713" stroke="#515F76" stroke-width="2.4" stroke-linecap="round" stroke-linejoin="round"/>
<path d="M167.098 100.44V102.117" stroke="#515F76" stroke-width="2.4" stroke-linecap="round" stroke-linejoin="round"/>
<path d="M172.408 101.838V102.523V102.956" stroke="#515F76" stroke-width="2.4" stroke-linecap="round" stroke-linejoin="round"/>
<path d="M177.669 101.279V102.397" stroke="#515F76" stroke-width="2.4" stroke-linecap="round" stroke-linejoin="round"/>
<path d="M206.438 121.847V150.819C206.438 151.708 206.085 152.561 205.456 153.19C204.827 153.819 203.974 154.172 203.085 154.172H146.608C145.718 154.172 144.865 153.819 144.236 153.19C143.607 152.561 143.254 151.708 143.254 150.819V121.847C143.254 124.218 144.196 126.493 145.873 128.17C147.55 129.847 149.825 130.789 152.197 130.789H170.109V137.405C170.109 137.553 170.168 137.696 170.273 137.8C170.378 137.905 170.52 137.964 170.668 137.964H179.052C179.2 137.964 179.342 137.905 179.447 137.8C179.552 137.696 179.611 137.553 179.611 137.405V130.789H198.614C203.525 130.789 206.438 126.779 206.438 121.847Z" fill="#ED9180"/>
<path d="M189.084 108.342H203.057C203.946 108.342 204.799 108.695 205.428 109.324C206.057 109.953 206.41 110.806 206.41 111.695V121.847C206.41 126.779 203.525 130.789 198.586 130.789H179.583V126.786C179.583 126.638 179.524 126.495 179.419 126.391C179.314 126.286 179.172 126.227 179.024 126.227H170.64C170.492 126.227 170.35 126.286 170.245 126.391C170.14 126.495 170.082 126.638 170.082 126.786V130.789H152.197C149.825 130.789 147.55 129.847 145.873 128.17C144.196 126.493 143.254 124.218 143.254 121.847V111.695C143.254 110.806 143.607 109.953 144.236 109.324C144.865 108.695 145.718 108.342 146.608 108.342H189.084Z" fill="#ED9180"/>
<path d="M179.583 130.789V137.405C179.583 137.553 179.524 137.696 179.419 137.8C179.314 137.905 179.172 137.964 179.024 137.964H170.64C170.492 137.964 170.35 137.905 170.245 137.8C170.14 137.696 170.082 137.553 170.082 137.405V126.786C170.082 126.638 170.14 126.496 170.245 126.391C170.35 126.286 170.492 126.227 170.64 126.227H179.024C179.172 126.227 179.314 126.286 179.419 126.391C179.524 126.496 179.583 126.638 179.583 126.786V130.789Z" fill="white"/>
<path d="M159.462 108.643V99.2669C159.462 99.1187 159.521 98.9765 159.626 98.8717C159.731 98.7669 159.873 98.708 160.021 98.708H161.977" stroke="#515F76" stroke-width="2.4" stroke-linejoin="round"/>
<path d="M188.274 98.708H188.553C188.702 98.708 188.844 98.7669 188.949 98.8717C189.053 98.9765 189.112 99.1187 189.112 99.2669V108.643" stroke="#515F76" stroke-width="2.4" stroke-linejoin="round"/>
<path d="M144.959 124.641V115.608C144.959 113.756 146.866 112.534 148.718 112.534C148.718 112.534 206.005 111.528 206.327 111.647C206.246 110.838 205.866 110.088 205.261 109.545C204.656 109.002 203.87 108.705 203.057 108.712H146.608C144.756 108.712 142.863 109.844 142.863 111.695V121.847C142.85 123.154 143.126 124.449 143.672 125.638C144.218 126.826 145.02 127.879 146.021 128.721C145.347 127.465 144.983 126.066 144.959 124.641V124.641Z" fill="#EEB8A9"/>
<path d="M152.197 131.069C149.756 131.02 147.427 130.036 145.69 128.32C143.953 126.604 142.941 124.287 142.863 121.847V124.641C142.941 127.081 143.953 129.398 145.69 131.114C147.427 132.83 149.756 133.814 152.197 133.863H169.411V131.069H152.197Z" fill="#EC857C"/>
<path d="M198.586 131.069H179.192V133.863H198.586C203.525 133.863 205.74 129.574 205.74 124.641V121.847C205.74 126.779 203.525 131.069 198.586 131.069Z" fill="#EC857C"/>
<path d="M206.438 121.847C206.438 126.779 203.553 130.789 198.613 130.789H180.093" stroke="#515F76" stroke-width="2.4" stroke-linejoin="round"/>
<path d="M179.583 130.789V137.405C179.583 137.553 179.524 137.696 179.419 137.8C179.314 137.905 179.172 137.964 179.024 137.964H170.64C170.492 137.964 170.35 137.905 170.245 137.8C170.14 137.696 170.082 137.553 170.082 137.405V126.786C170.082 126.638 170.14 126.496 170.245 126.391C170.35 126.286 170.492 126.227 170.64 126.227H179.024C179.172 126.227 179.314 126.286 179.419 126.391C179.524 126.496 179.583 126.638 179.583 126.786V130.789Z" stroke="#515F76" stroke-width="2.4" stroke-linecap="round" stroke-linejoin="round"/>
<path d="M145.658 150.819V127.764C144.253 126.123 143.507 124.02 143.562 121.861V150.833C143.562 152.684 145.315 154.836 147.167 154.836H149.402C147.551 154.822 145.658 152.67 145.658 150.819Z" fill="#EEB8A9"/>
<path d="M169.802 130.789H152.197C149.825 130.789 147.55 129.847 145.873 128.17C144.196 126.493 143.254 124.218 143.254 121.847" stroke="#515F76" stroke-width="2.4" stroke-linejoin="round"/>
<path d="M206.438 121.847V150.819C206.438 151.708 206.085 152.561 205.456 153.19C204.827 153.819 203.974 154.172 203.085 154.172H146.608C145.718 154.172 144.865 153.819 144.236 153.19C143.607 152.561 143.254 151.708 143.254 150.819V111.695C143.254 110.806 143.607 109.953 144.236 109.324C144.865 108.695 145.718 108.342 146.608 108.342H203.057C203.946 108.342 204.799 108.695 205.428 109.324C206.057 109.953 206.41 110.806 206.41 111.695V121.847H206.438Z" stroke="#515F76" stroke-width="2.4" stroke-linejoin="round"/>
<path d="M206.41 103.675C207.028 103.675 207.528 103.175 207.528 102.558C207.528 101.94 207.028 101.44 206.41 101.44C205.793 101.44 205.292 101.94 205.292 102.558C205.292 103.175 205.793 103.675 206.41 103.675Z" fill="#B8B9BA"/>
<path d="M212.537 116.167C213.309 116.167 213.935 115.541 213.935 114.769C213.935 113.998 213.309 113.372 212.537 113.372C211.766 113.372 211.14 113.998 211.14 114.769C211.14 115.541 211.766 116.167 212.537 116.167Z" stroke="#B8B9BA" stroke-width="1.6" stroke-miterlimit="10" stroke-linecap="round"/>
<path d="M212.027 156.918V161.11" stroke="#B8B9BA" stroke-width="2" stroke-miterlimit="10" stroke-linecap="round"/>
<path d="M214.123 159.014H209.932" stroke="#B8B9BA" stroke-width="2" stroke-miterlimit="10" stroke-linecap="round"/>
<path d="M202.498 161.158C203.116 161.158 203.616 160.658 203.616 160.041C203.616 159.423 203.116 158.923 202.498 158.923C201.881 158.923 201.38 159.423 201.38 160.041C201.38 160.658 201.881 161.158 202.498 161.158Z" fill="#B8B9BA"/>
<path d="M135.611 159.943L137.847 162.178" stroke="#A8CBEB" stroke-width="1.6" stroke-miterlimit="10" stroke-linecap="round"/>
<path d="M137.847 159.943L135.611 162.178" stroke="#A8CBEB" stroke-width="1.6" stroke-miterlimit="10" stroke-linecap="round"/>
<path d="M155.375 74.9196L157.003 74.0673C157.012 74.0619 157.023 74.0592 157.033 74.0595C157.044 74.0598 157.054 74.063 157.063 74.0688C157.072 74.0747 157.078 74.0829 157.083 74.0925C157.087 74.1021 157.089 74.1127 157.087 74.1232L156.78 75.9326L158.177 77.2949L156.249 77.5744L155.382 79.321L154.516 77.5744L152.7 77.3089C152.691 77.3041 152.684 77.297 152.679 77.2884C152.674 77.2798 152.671 77.27 152.671 77.26C152.671 77.25 152.674 77.2402 152.679 77.2316C152.684 77.223 152.691 77.2159 152.7 77.2111L154.013 75.9256L153.685 74.0044L155.375 74.9196Z" fill="#B8B9BA"/>
<path d="M137.847 154.046C138.464 154.046 138.965 153.546 138.965 152.929C138.965 152.311 138.464 151.811 137.847 151.811C137.229 151.811 136.729 152.311 136.729 152.929C136.729 153.546 137.229 154.046 137.847 154.046Z" fill="#B8B9BA"/>
<path d="M148.284 164.414C148.902 164.414 149.402 163.914 149.402 163.296C149.402 162.679 148.902 162.178 148.284 162.178C147.667 162.178 147.167 162.679 147.167 163.296C147.167 163.914 147.667 164.414 148.284 164.414Z" fill="#B8B9BA"/>
<path d="M153.203 67.8216C153.82 67.8216 154.321 67.3211 154.321 66.7037C154.321 66.0864 153.82 65.5859 153.203 65.5859C152.585 65.5859 152.085 66.0864 152.085 66.7037C152.085 67.3211 152.585 67.8216 153.203 67.8216Z" fill="#B8B9BA"/>
<path d="M148.284 83.2403C149.056 83.2403 149.682 82.6147 149.682 81.8431C149.682 81.0714 149.056 80.4458 148.284 80.4458C147.513 80.4458 146.887 81.0714 146.887 81.8431C146.887 82.6147 147.513 83.2403 148.284 83.2403Z" stroke="#B8B9BA" stroke-width="1.6" stroke-miterlimit="10" stroke-linecap="round"/>
<path d="M182.189 76.2539H168.216L166.98 76.0303C166.464 75.937 165.998 75.6655 165.662 75.2633C165.326 74.8611 165.142 74.3536 165.142 73.8297V70.106H162.907V76.8128H182.468V76.2539H182.189V76.2539Z" fill="#D2E1EF"/>
<path d="M182.189 70.3855V77.0923H179.394H165.422H162.627V70.3855" stroke="#515F76" stroke-width="2.4" stroke-linecap="round" stroke-linejoin="round"/>
</g>
<g filter="url(#filter2_d_308_458)">
<path d="M210 162H247C249.652 162 252.196 163.054 254.071 164.929C255.946 166.804 257 169.348 257 172V209C257 211.652 255.946 214.196 254.071 216.071C252.196 217.946 249.652 219 247 219H210C207.348 219 204.804 217.946 202.929 216.071C201.054 214.196 200 211.652 200 209V172C200 169.348 201.054 166.804 202.929 164.929C204.804 163.054 207.348 162 210 162V162Z" fill="white"/>
</g>
<g filter="url(#filter3_d_308_458)">
<path d="M245.612 176.448L228.729 171.524C228.6 171.489 228.464 171.489 228.335 171.524L211.452 176.448C211.306 176.49 211.177 176.579 211.086 176.701C210.994 176.822 210.945 176.971 210.946 177.123V189.785C210.947 191.886 211.364 193.965 212.172 195.904C212.979 197.844 214.162 199.604 215.652 201.085V201.095L228.033 213.495C228.166 213.626 228.346 213.7 228.533 213.7C228.72 213.7 228.899 213.626 229.033 213.495L241.413 201.095C242.903 199.614 244.085 197.854 244.893 195.914C245.701 193.975 246.117 191.896 246.119 189.795V177.123C246.119 176.971 246.07 176.822 245.979 176.7C245.887 176.579 245.758 176.49 245.612 176.448V176.448ZM244.712 189.786C244.71 191.704 244.33 193.602 243.592 195.372C242.854 197.142 241.773 198.748 240.412 200.099L228.531 211.999L216.651 200.095C215.29 198.744 214.209 197.138 213.471 195.368C212.733 193.598 212.352 191.7 212.351 189.782V177.651L228.531 172.93L244.712 177.651V189.786Z" fill="url(#paint0_linear_308_458)"/>
</g>
<g filter="url(#filter4_d_308_458)">
<path d="M242.794 178.565L228.725 174.465C228.597 174.423 228.459 174.423 228.331 174.465L214.262 178.565C214.116 178.607 213.987 178.696 213.896 178.818C213.804 178.94 213.755 179.088 213.756 179.24V189.79C213.757 191.523 214.101 193.239 214.768 194.838C215.434 196.438 216.41 197.89 217.639 199.112L228.029 209.512C228.094 209.579 228.172 209.631 228.258 209.667C228.344 209.704 228.436 209.722 228.529 209.722C228.622 209.722 228.714 209.704 228.8 209.667C228.886 209.631 228.964 209.579 229.029 209.512L239.412 199.112C240.643 197.892 241.621 196.44 242.288 194.84C242.956 193.241 243.3 191.524 243.302 189.791V179.238C243.302 179.086 243.253 178.937 243.162 178.815C243.07 178.694 242.941 178.605 242.795 178.563L242.794 178.565ZM241.894 189.792C241.891 191.341 241.583 192.874 240.986 194.303C240.39 195.733 239.518 197.03 238.419 198.122L228.528 208.022L218.637 198.122C217.537 197.031 216.664 195.733 216.068 194.304C215.472 192.874 215.164 191.341 215.162 189.792V179.765L228.527 175.865L241.894 179.765V189.792Z" fill="url(#paint1_linear_308_458)"/>
</g>
<g filter="url(#filter5_d_308_458)">
<path d="M228.531 180.645C226.722 180.645 224.954 181.181 223.45 182.186C221.946 183.191 220.774 184.619 220.082 186.29C219.39 187.961 219.209 189.8 219.561 191.574C219.914 193.348 220.785 194.978 222.064 196.257C223.343 197.535 224.973 198.406 226.747 198.759C228.521 199.112 230.359 198.931 232.03 198.239C233.701 197.547 235.13 196.375 236.135 194.871C237.139 193.367 237.676 191.599 237.676 189.79C237.676 188.589 237.439 187.4 236.98 186.29C236.52 185.181 235.846 184.173 234.997 183.324C234.148 182.474 233.14 181.801 232.03 181.341C230.921 180.882 229.732 180.645 228.531 180.645V180.645ZM228.531 197.528C227 197.528 225.504 197.074 224.232 196.224C222.959 195.374 221.967 194.165 221.382 192.751C220.796 191.337 220.643 189.781 220.941 188.28C221.24 186.779 221.977 185.401 223.059 184.318C224.141 183.236 225.52 182.499 227.021 182.201C228.522 181.902 230.078 182.055 231.492 182.641C232.906 183.227 234.114 184.219 234.965 185.491C235.815 186.764 236.269 188.26 236.269 189.79C236.269 190.806 236.069 191.812 235.68 192.751C235.291 193.69 234.721 194.543 234.002 195.262C233.284 195.98 232.431 196.55 231.492 196.939C230.553 197.328 229.547 197.528 228.531 197.528V197.528Z" fill="url(#paint2_linear_308_458)"/>
</g>
<g filter="url(#filter6_d_308_458)">
<path d="M231.683 188.101V190.964C231.586 191.107 231.432 191.268 231.221 191.447C231.009 191.622 230.718 191.776 230.345 191.909C229.976 192.038 229.5 192.102 228.917 192.102C228.44 192.102 228.002 192.02 227.601 191.855C227.203 191.687 226.858 191.443 226.564 191.125C226.274 190.802 226.048 190.412 225.887 189.954C225.73 189.492 225.651 188.969 225.651 188.385V187.779C225.651 187.195 225.719 186.674 225.855 186.216C225.995 185.757 226.199 185.369 226.467 185.05C226.736 184.728 227.065 184.484 227.456 184.32C227.846 184.151 228.293 184.067 228.798 184.067C229.396 184.067 229.896 184.171 230.297 184.379C230.701 184.583 231.017 184.866 231.242 185.227C231.471 185.589 231.618 186.001 231.683 186.463H230.646C230.599 186.18 230.506 185.922 230.367 185.689C230.231 185.456 230.035 185.27 229.781 185.131C229.527 184.987 229.199 184.916 228.798 184.916C228.437 184.916 228.123 184.982 227.858 185.115C227.593 185.247 227.375 185.437 227.203 185.684C227.031 185.931 226.902 186.23 226.816 186.581C226.734 186.932 226.693 187.327 226.693 187.768V188.385C226.693 188.837 226.745 189.24 226.849 189.594C226.956 189.948 227.108 190.251 227.305 190.502C227.502 190.749 227.737 190.937 228.009 191.066C228.285 191.195 228.589 191.259 228.922 191.259C229.291 191.259 229.59 191.229 229.819 191.168C230.048 191.103 230.227 191.028 230.356 190.942C230.485 190.853 230.583 190.768 230.651 190.69V188.939H228.841V188.101H231.683Z" fill="#F0803D"/>
</g>
<path d="M115.727 247.469V258.328C115.323 258.862 114.691 259.448 113.832 260.086C112.986 260.711 111.859 261.251 110.453 261.707C109.047 262.163 107.296 262.391 105.199 262.391C103.415 262.391 101.781 262.091 100.297 261.492C98.8125 260.88 97.5299 259.988 96.4492 258.816C95.3815 257.645 94.5547 256.219 93.9688 254.539C93.3828 252.846 93.0898 250.919 93.0898 248.758V246.785C93.0898 244.637 93.3568 242.723 93.8906 241.043C94.4375 239.35 95.2188 237.918 96.2344 236.746C97.25 235.574 98.474 234.689 99.9062 234.09C101.352 233.478 102.986 233.172 104.809 233.172C107.139 233.172 109.066 233.562 110.59 234.344C112.126 235.112 113.311 236.18 114.145 237.547C114.978 238.914 115.505 240.477 115.727 242.234H110.922C110.766 241.245 110.46 240.359 110.004 239.578C109.561 238.797 108.923 238.185 108.09 237.742C107.27 237.286 106.202 237.059 104.887 237.059C103.754 237.059 102.758 237.273 101.898 237.703C101.039 238.133 100.323 238.764 99.75 239.598C99.1901 240.431 98.7669 241.447 98.4805 242.645C98.194 243.842 98.0508 245.21 98.0508 246.746V248.758C98.0508 250.32 98.2135 251.707 98.5391 252.918C98.8776 254.129 99.3594 255.151 99.9844 255.984C100.622 256.818 101.397 257.449 102.309 257.879C103.22 258.296 104.249 258.504 105.395 258.504C106.514 258.504 107.432 258.413 108.148 258.23C108.865 258.035 109.431 257.807 109.848 257.547C110.277 257.273 110.609 257.013 110.844 256.766V251.121H104.926V247.469H115.727ZM137.113 233.562H141.996V252.566C141.996 254.728 141.527 256.538 140.59 257.996C139.652 259.454 138.376 260.555 136.762 261.297C135.16 262.026 133.37 262.391 131.391 262.391C129.346 262.391 127.523 262.026 125.922 261.297C124.32 260.555 123.057 259.454 122.133 257.996C121.221 256.538 120.766 254.728 120.766 252.566V233.562H125.648V252.566C125.648 253.934 125.883 255.06 126.352 255.945C126.82 256.818 127.484 257.462 128.344 257.879C129.203 258.296 130.219 258.504 131.391 258.504C132.562 258.504 133.572 258.296 134.418 257.879C135.277 257.462 135.941 256.818 136.41 255.945C136.879 255.06 137.113 253.934 137.113 252.566V233.562ZM157.973 237.352L149.477 262H144.34L155.043 233.562H158.324L157.973 237.352ZM165.082 262L156.566 237.352L156.195 233.562H159.496L170.238 262H165.082ZM164.672 251.453V255.34H149.203V251.453H164.672ZM173.422 233.562H183.48C185.642 233.562 187.484 233.888 189.008 234.539C190.531 235.19 191.697 236.154 192.504 237.43C193.324 238.693 193.734 240.255 193.734 242.117C193.734 243.536 193.474 244.786 192.953 245.867C192.432 246.948 191.697 247.859 190.746 248.602C189.796 249.331 188.663 249.897 187.348 250.301L185.863 251.023H176.82L176.781 247.137H183.559C184.73 247.137 185.707 246.928 186.488 246.512C187.27 246.095 187.855 245.529 188.246 244.812C188.65 244.083 188.852 243.263 188.852 242.352C188.852 241.362 188.656 240.503 188.266 239.773C187.888 239.031 187.302 238.465 186.508 238.074C185.714 237.671 184.704 237.469 183.48 237.469H178.324V262H173.422V233.562ZM189.652 262L182.973 249.227L188.109 249.207L194.887 261.746V262H189.652ZM206.879 262H200.805L200.844 258.113H206.879C208.637 258.113 210.108 257.729 211.293 256.961C212.491 256.193 213.389 255.092 213.988 253.66C214.6 252.228 214.906 250.522 214.906 248.543V247C214.906 245.464 214.73 244.103 214.379 242.918C214.04 241.733 213.533 240.737 212.855 239.93C212.191 239.122 211.371 238.51 210.395 238.094C209.431 237.677 208.318 237.469 207.055 237.469H200.688V233.562H207.055C208.943 233.562 210.668 233.882 212.23 234.52C213.793 235.145 215.141 236.049 216.273 237.234C217.419 238.419 218.298 239.839 218.91 241.492C219.522 243.146 219.828 244.995 219.828 247.039V248.543C219.828 250.587 219.522 252.436 218.91 254.09C218.298 255.743 217.419 257.163 216.273 258.348C215.128 259.52 213.76 260.424 212.172 261.062C210.596 261.688 208.832 262 206.879 262ZM203.52 233.562V262H198.617V233.562H203.52ZM229.984 233.562V262H225.082V233.562H229.984ZM258.754 247V248.562C258.754 250.711 258.474 252.638 257.914 254.344C257.354 256.049 256.553 257.501 255.512 258.699C254.483 259.897 253.246 260.815 251.801 261.453C250.355 262.078 248.754 262.391 246.996 262.391C245.251 262.391 243.656 262.078 242.211 261.453C240.779 260.815 239.535 259.897 238.48 258.699C237.426 257.501 236.605 256.049 236.02 254.344C235.447 252.638 235.16 250.711 235.16 248.562V247C235.16 244.852 235.447 242.931 236.02 241.238C236.592 239.533 237.4 238.081 238.441 236.883C239.496 235.672 240.74 234.754 242.172 234.129C243.617 233.491 245.212 233.172 246.957 233.172C248.715 233.172 250.316 233.491 251.762 234.129C253.207 234.754 254.451 235.672 255.492 236.883C256.534 238.081 257.335 239.533 257.895 241.238C258.467 242.931 258.754 244.852 258.754 247ZM253.852 248.562V246.961C253.852 245.372 253.695 243.973 253.383 242.762C253.083 241.538 252.634 240.516 252.035 239.695C251.449 238.862 250.727 238.237 249.867 237.82C249.008 237.391 248.038 237.176 246.957 237.176C245.876 237.176 244.913 237.391 244.066 237.82C243.22 238.237 242.497 238.862 241.898 239.695C241.312 240.516 240.863 241.538 240.551 242.762C240.238 243.973 240.082 245.372 240.082 246.961V248.562C240.082 250.151 240.238 251.557 240.551 252.781C240.863 254.005 241.319 255.04 241.918 255.887C242.53 256.72 243.259 257.352 244.105 257.781C244.952 258.198 245.915 258.406 246.996 258.406C248.09 258.406 249.06 258.198 249.906 257.781C250.753 257.352 251.469 256.72 252.055 255.887C252.641 255.04 253.083 254.005 253.383 252.781C253.695 251.557 253.852 250.151 253.852 248.562Z" fill="#262565"/>
<defs>
<filter id="filter0_d_308_458" x="86" y="29" width="177" height="179" filterUnits="userSpaceOnUse" color-interpolation-filters="sRGB">
<feFlood flood-opacity="0" result="BackgroundImageFix"/>
<feColorMatrix in="SourceAlpha" type="matrix" values="0 0 0 0 0 0 0 0 0 0 0 0 0 0 0 0 0 0 127 0" result="hardAlpha"/>
<feOffset dx="2" dy="4"/>
<feGaussianBlur stdDeviation="5.5"/>
<feColorMatrix type="matrix" values="0 0 0 0 0 0 0 0 0 0 0 0 0 0 0 0 0 0 0.161 0"/>
<feBlend mode="normal" in2="BackgroundImageFix" result="effect1_dropShadow_308_458"/>
<feBlend mode="normal" in="SourceGraphic" in2="effect1_dropShadow_308_458" result="shape"/>
</filter>
<filter id="filter1_d_308_458" x="118" y="61" width="114" height="114" filterUnits="userSpaceOnUse" color-interpolation-filters="sRGB">
<feFlood flood-opacity="0" result="BackgroundImageFix"/>
<feColorMatrix in="SourceAlpha" type="matrix" values="0 0 0 0 0 0 0 0 0 0 0 0 0 0 0 0 0 0 127 0" result="hardAlpha"/>
<feOffset dy="3"/>
<feGaussianBlur stdDeviation="3"/>
<feColorMatrix type="matrix" values="0 0 0 0 0 0 0 0 0 0 0 0 0 0 0 0 0 0 0.161 0"/>
<feBlend mode="normal" in2="BackgroundImageFix" result="effect1_dropShadow_308_458"/>
<feBlend mode="normal" in="SourceGraphic" in2="effect1_dropShadow_308_458" result="shape"/>
</filter>
<filter id="filter2_d_308_458" x="191" y="155" width="79" height="79" filterUnits="userSpaceOnUse" color-interpolation-filters="sRGB">
<feFlood flood-opacity="0" result="BackgroundImageFix"/>
<feColorMatrix in="SourceAlpha" type="matrix" values="0 0 0 0 0 0 0 0 0 0 0 0 0 0 0 0 0 0 127 0" result="hardAlpha"/>
<feOffset dx="2" dy="4"/>
<feGaussianBlur stdDeviation="5.5"/>
<feColorMatrix type="matrix" values="0 0 0 0 0 0 0 0 0 0 0 0 0 0 0 0 0 0 0.161 0"/>
<feBlend mode="normal" in2="BackgroundImageFix" result="effect1_dropShadow_308_458"/>
<feBlend mode="normal" in="SourceGraphic" in2="effect1_dropShadow_308_458" result="shape"/>
</filter>
<filter id="filter3_d_308_458" x="209.946" y="171.498" width="37.1729" height="44.2021" filterUnits="userSpaceOnUse" color-interpolation-filters="sRGB">
<feFlood flood-opacity="0" result="BackgroundImageFix"/>
<feColorMatrix in="SourceAlpha" type="matrix" values="0 0 0 0 0 0 0 0 0 0 0 0 0 0 0 0 0 0 127 0" result="hardAlpha"/>
<feOffset dy="1"/>
<feGaussianBlur stdDeviation="0.5"/>
<feColorMatrix type="matrix" values="0 0 0 0 0 0 0 0 0 0 0 0 0 0 0 0 0 0 0.161 0"/>
<feBlend mode="normal" in2="BackgroundImageFix" result="effect1_dropShadow_308_458"/>
<feBlend mode="normal" in="SourceGraphic" in2="effect1_dropShadow_308_458" result="shape"/>
</filter>
<filter id="filter4_d_308_458" x="212.756" y="174.433" width="31.5459" height="37.2888" filterUnits="userSpaceOnUse" color-interpolation-filters="sRGB">
<feFlood flood-opacity="0" result="BackgroundImageFix"/>
<feColorMatrix in="SourceAlpha" type="matrix" values="0 0 0 0 0 0 0 0 0 0 0 0 0 0 0 0 0 0 127 0" result="hardAlpha"/>
<feOffset dy="1"/>
<feGaussianBlur stdDeviation="0.5"/>
<feColorMatrix type="matrix" values="0 0 0 0 0 0 0 0 0 0 0 0 0 0 0 0 0 0 0.161 0"/>
<feBlend mode="normal" in2="BackgroundImageFix" result="effect1_dropShadow_308_458"/>
<feBlend mode="normal" in="SourceGraphic" in2="effect1_dropShadow_308_458" result="shape"/>
</filter>
<filter id="filter5_d_308_458" x="218.386" y="180.645" width="20.29" height="20.29" filterUnits="userSpaceOnUse" color-interpolation-filters="sRGB">
<feFlood flood-opacity="0" result="BackgroundImageFix"/>
<feColorMatrix in="SourceAlpha" type="matrix" values="0 0 0 0 0 0 0 0 0 0 0 0 0 0 0 0 0 0 127 0" result="hardAlpha"/>
<feOffset dy="1"/>
<feGaussianBlur stdDeviation="0.5"/>
<feColorMatrix type="matrix" values="0 0 0 0 0 0 0 0 0 0 0 0 0 0 0 0 0 0 0.161 0"/>
<feBlend mode="normal" in2="BackgroundImageFix" result="effect1_dropShadow_308_458"/>
<feBlend mode="normal" in="SourceGraphic" in2="effect1_dropShadow_308_458" result="shape"/>
</filter>
<filter id="filter6_d_308_458" x="224.651" y="184.067" width="8.03174" height="10.0352" filterUnits="userSpaceOnUse" color-interpolation-filters="sRGB">
<feFlood flood-opacity="0" result="BackgroundImageFix"/>
<feColorMatrix in="SourceAlpha" type="matrix" values="0 0 0 0 0 0 0 0 0 0 0 0 0 0 0 0 0 0 127 0" result="hardAlpha"/>
<feOffset dy="1"/>
<feGaussianBlur stdDeviation="0.5"/>
<feColorMatrix type="matrix" values="0 0 0 0 0 0 0 0 0 0 0 0 0 0 0 0 0 0 0.161 0"/>
<feBlend mode="normal" in2="BackgroundImageFix" result="effect1_dropShadow_308_458"/>
<feBlend mode="normal" in="SourceGraphic" in2="effect1_dropShadow_308_458" result="shape"/>
</filter>
<linearGradient id="paint0_linear_308_458" x1="228.532" y1="170.02" x2="228.532" y2="217.793" gradientUnits="userSpaceOnUse">
<stop stop-color="#FFF33B"/>
<stop offset="0.014" stop-color="#FEE72E"/>
<stop offset="0.042" stop-color="#FED51B"/>
<stop offset="0.07" stop-color="#FDCA10"/>
<stop offset="0.1" stop-color="#FDC70C"/>
<stop offset="0.4" stop-color="#F3903F"/>
<stop offset="0.8" stop-color="#ED683C"/>
<stop offset="1" stop-color="#E93E3A"/>
</linearGradient>
<linearGradient id="paint1_linear_308_458" x1="213.756" y1="170.022" x2="250.389" y2="211.552" gradientUnits="userSpaceOnUse">
<stop stop-color="#FFF33B"/>
<stop offset="0.014" stop-color="#FEE72E"/>
<stop offset="0.042" stop-color="#FED51B"/>
<stop offset="0.07" stop-color="#FDCA10"/>
<stop offset="0.1" stop-color="#FDC70C"/>
<stop offset="0.4" stop-color="#F3903F"/>
<stop offset="0.8" stop-color="#ED683C"/>
<stop offset="1" stop-color="#E93E3A"/>
</linearGradient>
<linearGradient id="paint2_linear_308_458" x1="219.386" y1="170.019" x2="237.676" y2="217.792" gradientUnits="userSpaceOnUse">
<stop stop-color="#FFF33B"/>
<stop offset="0.014" stop-color="#FEE72E"/>
<stop offset="0.042" stop-color="#FED51B"/>
<stop offset="0.07" stop-color="#FDCA10"/>
<stop offset="0.1" stop-color="#FDC70C"/>
<stop offset="0.4" stop-color="#F3903F"/>
<stop offset="0.8" stop-color="#ED683C"/>
<stop offset="1" stop-color="#E93E3A"/>
</linearGradient>
</defs>
</svg>
