<svg xmlns="http://www.w3.org/2000/svg" xmlns:xlink="http://www.w3.org/1999/xlink" width="350" height="350"
     viewBox="0 0 350 350">
    <defs>
        <filter id="Ellipse_2" x="80.5" y="23.5" width="188" height="190" filterUnits="userSpaceOnUse">
            <feOffset dx="2" dy="4" input="SourceAlpha"/>
            <feGaussianBlur stdDeviation="5.5" result="blur"/>
            <feFlood flood-opacity="0.161"/>
            <feComposite operator="in" in2="blur"/>
            <feComposite in="SourceGraphic"/>
        </filter>
        <filter id="Rectangle_2" x="185.5" y="149.5" width="90" height="90" filterUnits="userSpaceOnUse">
            <feOffset dx="2" dy="4" input="SourceAlpha"/>
            <feGaussianBlur stdDeviation="5.5" result="blur-2"/>
            <feFlood flood-opacity="0.161"/>
            <feComposite operator="in" in2="blur-2"/>
            <feComposite in="SourceGraphic"/>
        </filter>
        <linearGradient id="linear-gradient" x1="0.5" y1="-0.035" x2="0.5" y2="1.097" gradientUnits="objectBoundingBox">
            <stop offset="0" stop-color="#fff33b"/>
            <stop offset="0.014" stop-color="#fee72e"/>
            <stop offset="0.042" stop-color="#fed51b"/>
            <stop offset="0.07" stop-color="#fdca10"/>
            <stop offset="0.1" stop-color="#fdc70c"/>
            <stop offset="0.4" stop-color="#f3903f"/>
            <stop offset="0.8" stop-color="#ed683c"/>
            <stop offset="1" stop-color="#e93e3a"/>
        </linearGradient>
        <filter id="Path_1" x="209.446" y="171.005" width="38.173" height="45.206" filterUnits="userSpaceOnUse">
            <feOffset dy="1" input="SourceAlpha"/>
            <feGaussianBlur stdDeviation="0.5" result="blur-3"/>
            <feFlood flood-opacity="0.161"/>
            <feComposite operator="in" in2="blur-3"/>
            <feComposite in="SourceGraphic"/>
        </filter>
        <linearGradient id="linear-gradient-2" y1="-0.125" y2="1.229" xlink:href="#linear-gradient"/>
        <filter id="Path_2" x="212.26" y="173.933" width="32.545" height="38.297" filterUnits="userSpaceOnUse">
            <feOffset dy="1" input="SourceAlpha"/>
            <feGaussianBlur stdDeviation="0.5" result="blur-4"/>
            <feFlood flood-opacity="0.161"/>
            <feComposite operator="in" in2="blur-4"/>
            <feComposite in="SourceGraphic"/>
        </filter>
        <linearGradient id="linear-gradient-3" y1="-0.581" y2="2.031" xlink:href="#linear-gradient"/>
        <filter id="Path_4" x="217.888" y="180.148" width="21.29" height="21.29" filterUnits="userSpaceOnUse">
            <feOffset dy="1" input="SourceAlpha"/>
            <feGaussianBlur stdDeviation="0.5" result="blur-5"/>
            <feFlood flood-opacity="0.161"/>
            <feComposite operator="in" in2="blur-5"/>
            <feComposite in="SourceGraphic"/>
        </filter>
        <filter id="G" x="223.5" y="182.5" width="11" height="16" filterUnits="userSpaceOnUse">
            <feOffset dy="1" input="SourceAlpha"/>
            <feGaussianBlur stdDeviation="0.5" result="blur-6"/>
            <feFlood flood-opacity="0.161"/>
            <feComposite operator="in" in2="blur-6"/>
            <feComposite in="SourceGraphic"/>
        </filter>
        <linearGradient id="linear-gradient-4" x1="0.5" x2="0.5" y2="1" gradientUnits="objectBoundingBox">
            <stop offset="0" stop-color="#fdd319"/>
            <stop offset="1" stop-color="#eb543b"/>
        </linearGradient>
        <filter id="Path_7" x="167.31" y="112.345" width="25.673" height="32.369" filterUnits="userSpaceOnUse">
            <feOffset dy="3" input="SourceAlpha"/>
            <feGaussianBlur stdDeviation="3" result="blur-7"/>
            <feFlood flood-opacity="0.161"/>
            <feComposite operator="in" in2="blur-7"/>
            <feComposite in="SourceGraphic"/>
        </filter>
        <filter id="Path_8" x="121.274" y="65.859" width="102.399" height="102.399" filterUnits="userSpaceOnUse">
            <feOffset dy="3" input="SourceAlpha"/>
            <feGaussianBlur stdDeviation="3" result="blur-8"/>
            <feFlood flood-opacity="0.161"/>
            <feComposite operator="in" in2="blur-8"/>
            <feComposite in="SourceGraphic"/>
        </filter>
        <filter id="Path_9" x="151.964" y="89.327" width="25.673" height="32.369" filterUnits="userSpaceOnUse">
            <feOffset dy="3" input="SourceAlpha"/>
            <feGaussianBlur stdDeviation="3" result="blur-9"/>
            <feFlood flood-opacity="0.161"/>
            <feComposite operator="in" in2="blur-9"/>
            <feComposite in="SourceGraphic"/>
        </filter>
        <filter id="Path_10" x="98" y="42.585" width="148.946" height="148.946" filterUnits="userSpaceOnUse">
            <feOffset dy="3" input="SourceAlpha"/>
            <feGaussianBlur stdDeviation="3" result="blur-10"/>
            <feFlood flood-opacity="0.161"/>
            <feComposite operator="in" in2="blur-10"/>
            <feComposite in="SourceGraphic"/>
        </filter>
        <clipPath id="clip-guardio-billing-logo-mini-with-text">
            <rect width="350" height="350"/>
        </clipPath>
    </defs>
    <g id="guardio-billing-logo-mini-with-text" clip-path="url(#clip-guardio-billing-logo-mini-with-text)">
        <rect id="Rectangle_1" data-name="Rectangle 1" width="319" height="319" rx="10" transform="translate(16 16)"
              fill="#fff"/>
        <g transform="matrix(1, 0, 0, 1, 0, 0)" filter="url(#Ellipse_2)">
            <ellipse id="Ellipse_2-2" data-name="Ellipse 2" cx="77.5" cy="78.5" rx="77.5" ry="78.5"
                     transform="translate(95 36)" fill="#fff"/>
        </g>
        <text id="BILLING" transform="translate(103 312)" fill="#262565" font-size="40"
              font-family="Roboto-Regular, Roboto">
            <tspan x="0" y="0">BILLING</tspan>
        </text>
        <g transform="matrix(1, 0, 0, 1, 0, 0)" filter="url(#Rectangle_2)">
            <rect id="Rectangle_2-2" data-name="Rectangle 2" width="57" height="57" rx="10"
                  transform="translate(200 162)" fill="#fff"/>
        </g>
        <g id="protect-protection-sheild-safeguard-virus" transform="translate(196.777 155.903)">
            <g id="Group_1" transform="translate(14.169 15.602)">
                <g transform="matrix(1, 0, 0, 1, -210.95, -171.51)" filter="url(#Path_1)">
                    <path id="Path_1-2" data-name="Path_1"
                          d="M41.666,6.953,24.783,2.029a.748.748,0,0,0-.394,0L7.506,6.953A.7.7,0,0,0,7,7.628V20.29a15.949,15.949,0,0,0,4.706,11.3V31.6L24.087,44a.713.713,0,0,0,1,0L37.467,31.6a15.949,15.949,0,0,0,4.706-11.3V7.628a.7.7,0,0,0-.507-.675Zm-.9,13.338a14.543,14.543,0,0,1-4.3,10.313l-11.881,11.9L12.705,30.6a14.543,14.543,0,0,1-4.3-10.313V8.156l16.18-4.721L40.766,8.156Z"
                          transform="translate(203.95 169.5)" fill="url(#linear-gradient)"/>
                </g>
                <g transform="matrix(1, 0, 0, 1, -210.95, -171.51)" filter="url(#Path_2)">
                    <path id="Path_2-2" data-name="Path_2"
                          d="M40.038,10.3,25.969,6.2a.629.629,0,0,0-.394,0L11.506,10.3a.7.7,0,0,0-.506.675V21.525a13.16,13.16,0,0,0,3.883,9.322l10.39,10.4a.7.7,0,0,0,1,0l10.383-10.4a13.138,13.138,0,0,0,3.89-9.321V10.973a.7.7,0,0,0-.507-.675Zm-.9,11.227a11.772,11.772,0,0,1-3.475,8.33l-9.891,9.9-9.891-9.9a11.756,11.756,0,0,1-3.475-8.33V11.5L25.771,7.6l13.367,3.9Z"
                          transform="translate(202.76 168.27)" fill="url(#linear-gradient-2)"/>
                </g>
                <g transform="matrix(1, 0, 0, 1, -210.95, -171.51)" filter="url(#Path_4)">
                    <path id="Path_4-2" data-name="Path_4"
                          d="M28.145,15a9.145,9.145,0,1,0,9.145,9.145A9.145,9.145,0,0,0,28.145,15Zm0,16.883a7.738,7.738,0,1,1,7.738-7.738A7.738,7.738,0,0,1,28.145,31.883Z"
                          transform="translate(200.39 165.65)" fill="url(#linear-gradient-3)"/>
                </g>
                <g transform="matrix(1, 0, 0, 1, -210.95, -171.51)" filter="url(#G)">
                    <text id="G-2" data-name="G" transform="translate(225 193)" fill="#f0803d" font-size="11"
                          font-family="Roboto-Regular, Roboto">
                        <tspan x="0" y="0">G</tspan>
                    </text>
                </g>
            </g>
        </g>
        <g id="money" transform="translate(107 48.585)">
            <g transform="matrix(1, 0, 0, 1, -107, -48.59)" filter="url(#Path_7)">
                <path id="Path_7-2" data-name="Path 7"
                      d="M271,287.131c4.411-1.083,7.673-3.922,7.673-7.185s-3.262-6.1-7.673-7.185Z"
                      transform="translate(-94.69 -154.42)" fill="url(#linear-gradient-4)"/>
            </g>
            <g transform="matrix(1, 0, 0, 1, -107, -48.59)" filter="url(#Path_8)">
                <path id="Path_8-2" data-name="Path 8"
                      d="M133.2,91a42.2,42.2,0,1,0,42.2,42.2A42.247,42.247,0,0,0,133.2,91Zm19.182,53.671c0,7.412-6.6,13.609-15.345,15.035v4.184a3.836,3.836,0,0,1-7.673,0v-4.184c-8.745-1.426-15.345-7.623-15.345-15.035a3.836,3.836,0,0,1,7.673,0c0,3.263,3.262,6.1,7.673,7.185V136.688c-8.745-1.426-15.345-7.623-15.345-15.035s6.6-13.609,15.345-15.035v-4.147a3.836,3.836,0,0,1,7.673,0v4.147c8.744,1.426,15.345,7.623,15.345,15.035a3.836,3.836,0,1,1-7.673,0c0-3.263-3.262-6.1-7.673-7.185v15.168c8.744,1.425,15.345,7.623,15.345,15.035Z"
                      transform="translate(39.27 -19.14)" fill="url(#linear-gradient-4)"/>
            </g>
            <g transform="matrix(1, 0, 0, 1, -107, -48.59)" filter="url(#Path_9)">
                <path id="Path_9-2" data-name="Path 9"
                      d="M218.673,182.761c-4.41,1.083-7.673,3.922-7.673,7.185s3.262,6.1,7.673,7.185Z"
                      transform="translate(-50.04 -87.43)" fill="url(#linear-gradient-4)"/>
            </g>
            <g transform="matrix(1, 0, 0, 1, -107, -48.59)" filter="url(#Path_10)">
                <path id="Path_10-2" data-name="Path 10"
                      d="M65.473,0a65.473,65.473,0,1,0,65.473,65.473A65.729,65.729,0,0,0,65.473,0Zm0,115.345a49.872,49.872,0,1,1,49.872-49.872A49.93,49.93,0,0,1,65.473,115.345Z"
                      transform="translate(107 48.59)" fill="url(#linear-gradient-4)"/>
            </g>
        </g>
        <text id="GUARDIO" transform="translate(91 265)" fill="#262565" font-size="40"
              font-family="Roboto-Medium, Roboto" font-weight="500">
            <tspan x="0" y="0">GUARDIO</tspan>
        </text>
    </g>
</svg>
